<svg width="100" height="20" viewBox="0 0 100 20" fill="none" xmlns="http://www.w3.org/2000/svg">
<path d="M17.7364 6.89649L12.7774 6.17579L10.5606 1.68165C10.5001 1.5586 10.4005 1.45899 10.2774 1.39844C9.96883 1.2461 9.59382 1.37305 9.43953 1.68165L7.22273 6.17579L2.26374 6.89649C2.12702 6.91603 2.00202 6.98048 1.90632 7.07814C1.79062 7.19705 1.72686 7.35704 1.72906 7.52294C1.73126 7.68885 1.79923 7.84709 1.91804 7.9629L5.50593 11.461L4.65827 16.4004C4.6384 16.5153 4.65111 16.6335 4.69498 16.7415C4.73884 16.8496 4.8121 16.9432 4.90645 17.0117C5.0008 17.0802 5.11247 17.1209 5.22878 17.1292C5.34509 17.1375 5.46141 17.1131 5.56452 17.0586L10.0001 14.7266L14.4356 17.0586C14.5567 17.1231 14.6973 17.1445 14.8321 17.1211C15.172 17.0625 15.4005 16.7403 15.3419 16.4004L14.4942 11.461L18.0821 7.9629C18.1798 7.8672 18.2442 7.7422 18.2638 7.60548C18.3165 7.26368 18.0782 6.94728 17.7364 6.89649Z" fill="#FFE174"/>
<path d="M37.7364 6.89649L32.7774 6.17579L30.5606 1.68165C30.5001 1.5586 30.4005 1.45899 30.2774 1.39844C29.9688 1.2461 29.5938 1.37305 29.4395 1.68165L27.2227 6.17579L22.2637 6.89649C22.127 6.91603 22.002 6.98048 21.9063 7.07814C21.7906 7.19705 21.7269 7.35704 21.7291 7.52294C21.7313 7.68885 21.7992 7.84709 21.918 7.9629L25.5059 11.461L24.6583 16.4004C24.6384 16.5153 24.6511 16.6335 24.695 16.7415C24.7388 16.8496 24.8121 16.9432 24.9065 17.0117C25.0008 17.0802 25.1125 17.1209 25.2288 17.1292C25.3451 17.1375 25.4614 17.1131 25.5645 17.0586L30.0001 14.7266L34.4356 17.0586C34.5567 17.1231 34.6973 17.1445 34.8321 17.1211C35.172 17.0625 35.4005 16.7403 35.3419 16.4004L34.4942 11.461L38.0821 7.9629C38.1798 7.8672 38.2442 7.7422 38.2638 7.60548C38.3165 7.26368 38.0782 6.94728 37.7364 6.89649Z" fill="#FFE174"/>
<path d="M57.7364 6.89649L52.7774 6.17579L50.5606 1.68165C50.5001 1.5586 50.4005 1.45899 50.2774 1.39844C49.9688 1.2461 49.5938 1.37305 49.4395 1.68165L47.2227 6.17579L42.2637 6.89649C42.127 6.91603 42.002 6.98048 41.9063 7.07814C41.7906 7.19705 41.7269 7.35704 41.7291 7.52294C41.7313 7.68885 41.7992 7.84709 41.918 7.9629L45.5059 11.461L44.6583 16.4004C44.6384 16.5153 44.6511 16.6335 44.695 16.7415C44.7388 16.8496 44.8121 16.9432 44.9065 17.0117C45.0008 17.0802 45.1125 17.1209 45.2288 17.1292C45.3451 17.1375 45.4614 17.1131 45.5645 17.0586L50.0001 14.7266L54.4356 17.0586C54.5567 17.1231 54.6973 17.1445 54.8321 17.1211C55.172 17.0625 55.4005 16.7403 55.3419 16.4004L54.4942 11.461L58.0821 7.9629C58.1798 7.8672 58.2442 7.7422 58.2638 7.60548C58.3165 7.26368 58.0782 6.94728 57.7364 6.89649Z" fill="#FFE174"/>
<path d="M77.7364 6.89649L72.7774 6.17579L70.5606 1.68165C70.5001 1.5586 70.4005 1.45899 70.2774 1.39844C69.9688 1.2461 69.5938 1.37305 69.4395 1.68165L67.2227 6.17579L62.2637 6.89649C62.127 6.91603 62.002 6.98048 61.9063 7.07814C61.7906 7.19705 61.7269 7.35704 61.7291 7.52294C61.7313 7.68885 61.7992 7.84709 61.918 7.9629L65.5059 11.461L64.6583 16.4004C64.6384 16.5153 64.6511 16.6335 64.695 16.7415C64.7388 16.8496 64.8121 16.9432 64.9065 17.0117C65.0008 17.0802 65.1125 17.1209 65.2288 17.1292C65.3451 17.1375 65.4614 17.1131 65.5645 17.0586L70.0001 14.7266L74.4356 17.0586C74.5567 17.1231 74.6973 17.1445 74.8321 17.1211C75.172 17.0625 75.4005 16.7403 75.3419 16.4004L74.4942 11.461L78.0821 7.9629C78.1798 7.8672 78.2442 7.7422 78.2638 7.60548C78.3165 7.26368 78.0782 6.94728 77.7364 6.89649Z" fill="#FFE174"/>
<path d="M97.7364 6.89649L92.7774 6.17579L90.5606 1.68165C90.5001 1.5586 90.4005 1.45899 90.2774 1.39844C89.9688 1.2461 89.5938 1.37305 89.4395 1.68165L87.2227 6.17579L82.2637 6.89649C82.127 6.91603 82.002 6.98048 81.9063 7.07814C81.7906 7.19705 81.7269 7.35704 81.7291 7.52294C81.7313 7.68885 81.7992 7.84709 81.918 7.9629L85.5059 11.461L84.6583 16.4004C84.6384 16.5153 84.6511 16.6335 84.695 16.7415C84.7388 16.8496 84.8121 16.9432 84.9065 17.0117C85.0008 17.0802 85.1125 17.1209 85.2288 17.1292C85.3451 17.1375 85.4614 17.1131 85.5645 17.0586L90.0001 14.7266L94.4356 17.0586C94.5567 17.1231 94.6973 17.1445 94.8321 17.1211C95.172 17.0625 95.4005 16.7403 95.3419 16.4004L94.4942 11.461L98.0821 7.9629C98.1798 7.8672 98.2442 7.7422 98.2638 7.60548C98.3165 7.26368 98.0782 6.94728 97.7364 6.89649Z" fill="#D1D4D8"/>
</svg>
