<svg width="60" height="60" viewBox="0 0 60 60" fill="none" xmlns="http://www.w3.org/2000/svg">
<path fill-rule="evenodd" clip-rule="evenodd" d="M42.3269 30.2743C42.3269 30.5026 42.2362 30.7216 42.0747 30.8831C41.9133 31.0445 41.6943 31.1352 41.466 31.1352L21.1609 31.1352L26.5793 36.552C26.741 36.7136 26.8318 36.9329 26.8318 37.1615C26.8318 37.3901 26.741 37.6093 26.5793 37.771C26.4177 37.9327 26.1984 38.0235 25.9698 38.0235C25.7412 38.0235 25.522 37.9327 25.3603 37.771L18.4731 30.8838C18.393 30.8039 18.3294 30.7088 18.286 30.6043C18.2426 30.4997 18.2202 30.3875 18.2202 30.2743C18.2202 30.1611 18.2426 30.0489 18.286 29.9444C18.3294 29.8398 18.393 29.7448 18.4731 29.6648L25.3603 22.7776C25.4404 22.6976 25.5354 22.6341 25.64 22.5908C25.7445 22.5474 25.8566 22.5251 25.9698 22.5251C26.1984 22.5251 26.4177 22.616 26.5793 22.7776C26.741 22.9393 26.8318 23.1585 26.8318 23.3871C26.8318 23.6157 26.741 23.835 26.5793 23.9966L21.1609 29.4134L41.466 29.4134C41.6943 29.4134 41.9133 29.5041 42.0747 29.6656C42.2362 29.827 42.3269 30.046 42.3269 30.2743Z" fill="white"/>
<circle cx="30" cy="30" r="29" stroke="white" stroke-width="2"/>
</svg>
