<svg width="112" height="24" viewBox="0 0 112 24" fill="none" xmlns="http://www.w3.org/2000/svg">
<path d="M12.001 2.00195C6.47895 2.00195 2.00195 6.47895 2.00195 12.001C2.00195 16.991 5.65795 21.127 10.439 21.88V14.892H7.89895V12.001H10.439V9.79795C10.439 7.28995 11.932 5.90695 14.215 5.90695C15.309 5.90695 16.455 6.10195 16.455 6.10195V8.56095H15.191C13.951 8.56095 13.563 9.33295 13.563 10.124V11.999H16.334L15.891 14.89H13.563V21.878C18.344 21.129 22 16.992 22 12.001C22 6.47895 17.523 2.00195 12.001 2.00195Z" fill="white"/>
<path d="M64.9471 8.30545C64.937 7.54807 64.7952 6.79822 64.5281 6.08945C64.2964 5.4916 63.9426 4.94864 63.4892 4.49528C63.0359 4.04191 62.4929 3.6881 61.8951 3.45645C61.1954 3.1938 60.4562 3.05179 59.7091 3.03645C58.7471 2.99345 58.4421 2.98145 56.0001 2.98145C53.5581 2.98145 53.2451 2.98145 52.2901 3.03645C51.5432 3.0519 50.8044 3.19391 50.1051 3.45645C49.5071 3.68793 48.9641 4.04169 48.5107 4.49508C48.0573 4.94847 47.7036 5.4915 47.4721 6.08945C47.2089 6.78858 47.0672 7.52756 47.0531 8.27445C47.0101 9.23745 46.9971 9.54245 46.9971 11.9844C46.9971 14.4264 46.9971 14.7384 47.0531 15.6944C47.0681 16.4424 47.2091 17.1804 47.4721 17.8814C47.7039 18.4792 48.058 19.022 48.5115 19.4752C48.965 19.9284 49.5081 20.282 50.1061 20.5134C50.8035 20.7866 51.5424 20.9388 52.2911 20.9634C53.2541 21.0064 53.5591 21.0194 56.0011 21.0194C58.4431 21.0194 58.7561 21.0194 59.7111 20.9634C60.4582 20.9487 61.1974 20.807 61.8971 20.5444C62.4948 20.3125 63.0376 19.9586 63.4909 19.5053C63.9442 19.052 64.2982 18.5091 64.5301 17.9114C64.7931 17.2114 64.9341 16.4734 64.9491 15.7244C64.9921 14.7624 65.0051 14.4574 65.0051 12.0144C65.0031 9.57245 65.0031 9.26245 64.9471 8.30545ZM55.9941 16.6024C53.4401 16.6024 51.3711 14.5334 51.3711 11.9794C51.3711 9.42545 53.4401 7.35645 55.9941 7.35645C57.2202 7.35645 58.396 7.84351 59.263 8.71049C60.13 9.57747 60.6171 10.7533 60.6171 11.9794C60.6171 13.2055 60.13 14.3814 59.263 15.2484C58.396 16.1154 57.2202 16.6024 55.9941 16.6024ZM60.8011 8.26344C60.6595 8.26358 60.5192 8.23578 60.3884 8.18166C60.2575 8.12753 60.1386 8.04813 60.0385 7.948C59.9384 7.84787 59.859 7.72898 59.8049 7.59813C59.7507 7.46729 59.7229 7.32705 59.7231 7.18545C59.7231 7.04395 59.7509 6.90383 59.8051 6.7731C59.8592 6.64238 59.9386 6.52359 60.0387 6.42354C60.1387 6.32348 60.2575 6.24411 60.3882 6.18997C60.519 6.13582 60.6591 6.10795 60.8006 6.10795C60.9421 6.10795 61.0822 6.13582 61.2129 6.18997C61.3436 6.24411 61.4624 6.32348 61.5625 6.42354C61.6625 6.52359 61.7419 6.64238 61.7961 6.7731C61.8502 6.90383 61.8781 7.04395 61.8781 7.18545C61.8781 7.78145 61.3961 8.26344 60.8011 8.26344Z" fill="white"/>
<path d="M55.994 14.9816C57.6525 14.9816 58.997 13.6371 58.997 11.9786C58.997 10.3201 57.6525 8.97559 55.994 8.97559C54.3355 8.97559 52.991 10.3201 52.991 11.9786C52.991 13.6371 54.3355 14.9816 55.994 14.9816Z" fill="white"/>
<path d="M107.633 7.99656C107.646 8.17156 107.646 8.34556 107.646 8.51956C107.646 13.8446 103.593 19.9806 96.186 19.9806C93.904 19.9806 91.784 19.3196 90 18.1716C90.324 18.2086 90.636 18.2216 90.973 18.2216C92.786 18.2259 94.5476 17.6197 95.974 16.5006C95.1334 16.4853 94.3186 16.208 93.6432 15.7073C92.9679 15.2066 92.4658 14.5075 92.207 13.7076C92.456 13.7446 92.706 13.7696 92.968 13.7696C93.329 13.7696 93.692 13.7196 94.029 13.6326C93.1168 13.4484 92.2965 12.9539 91.7076 12.2332C91.1188 11.5126 90.7977 10.6102 90.799 9.67956V9.62956C91.336 9.92856 91.959 10.1156 92.619 10.1406C92.0661 9.77314 91.6127 9.27458 91.2993 8.68935C90.986 8.10411 90.8223 7.45041 90.823 6.78656C90.823 6.03856 91.022 5.35256 91.371 4.75456C92.3831 5.99958 93.6455 7.01812 95.0763 7.74421C96.5072 8.47031 98.0746 8.88777 99.677 8.96956C99.615 8.66956 99.577 8.35855 99.577 8.04656C99.5767 7.51752 99.6807 6.99361 99.8831 6.5048C100.085 6.01598 100.382 5.57183 100.756 5.19774C101.13 4.82366 101.574 4.52697 102.063 4.32463C102.552 4.1223 103.076 4.01829 103.605 4.01856C104.765 4.01856 105.812 4.50455 106.548 5.29056C107.45 5.11617 108.315 4.78698 109.104 4.31755C108.803 5.24837 108.174 6.03766 107.333 6.53756C108.133 6.44633 108.914 6.23601 109.652 5.91356C109.101 6.71665 108.419 7.4209 107.633 7.99656Z" fill="white"/>
</svg>
