<svg width="112" height="24" viewBox="0 0 112 24" fill="none" xmlns="http://www.w3.org/2000/svg">
<path d="M12.001 2.00195C6.47902 2.00195 2.00201 6.47895 2.00201 12.001C2.00201 16.991 5.65801 21.127 10.439 21.88V14.892H7.89901V12.001H10.439V9.79795C10.439 7.28995 11.932 5.90695 14.215 5.90695C15.309 5.90695 16.455 6.10195 16.455 6.10195V8.56095H15.191C13.951 8.56095 13.563 9.33295 13.563 10.124V11.999H16.334L15.891 14.89H13.563V21.878C18.344 21.129 22 16.992 22 12.001C22 6.47895 17.523 2.00195 12.001 2.00195Z" fill="black"/>
<path d="M64.947 8.30496C64.9369 7.54758 64.7951 6.79773 64.528 6.08896C64.2964 5.49111 63.9425 4.94816 63.4892 4.49479C63.0358 4.04142 62.4929 3.68761 61.895 3.45596C61.1953 3.19331 60.4562 3.0513 59.709 3.03596C58.747 2.99296 58.442 2.98096 56 2.98096C53.558 2.98096 53.245 2.98096 52.29 3.03596C51.5432 3.05141 50.8044 3.19343 50.105 3.45596C49.5071 3.68745 48.964 4.0412 48.5106 4.49459C48.0573 4.94798 47.7035 5.49102 47.472 6.08896C47.2088 6.78809 47.0671 7.52707 47.053 8.27396C47.01 9.23696 46.997 9.54196 46.997 11.984C46.997 14.426 46.997 14.738 47.053 15.694C47.068 16.442 47.209 17.18 47.472 17.881C47.7039 18.4787 48.0579 19.0215 48.5114 19.4747C48.965 19.9279 49.5081 20.2815 50.106 20.513C50.8034 20.7862 51.5424 20.9383 52.291 20.963C53.254 21.006 53.559 21.019 56.001 21.019C58.443 21.019 58.756 21.019 59.711 20.963C60.4582 20.9482 61.1974 20.8066 61.897 20.544C62.4947 20.312 63.0375 19.9581 63.4909 19.5048C63.9442 19.0515 64.2981 18.5086 64.53 17.911C64.793 17.211 64.934 16.473 64.949 15.724C64.992 14.762 65.005 14.457 65.005 12.014C65.003 9.57196 65.003 9.26196 64.947 8.30496ZM55.994 16.602C53.44 16.602 51.371 14.533 51.371 11.979C51.371 9.42496 53.44 7.35596 55.994 7.35596C57.2201 7.35596 58.396 7.84302 59.263 8.71C60.1299 9.57698 60.617 10.7529 60.617 11.979C60.617 13.2051 60.1299 14.3809 59.263 15.2479C58.396 16.1149 57.2201 16.602 55.994 16.602ZM60.801 8.26296C60.6594 8.26309 60.5192 8.2353 60.3883 8.18117C60.2575 8.12704 60.1386 8.04764 60.0385 7.94751C59.9383 7.84738 59.8589 7.72849 59.8048 7.59765C59.7507 7.4668 59.7229 7.32656 59.723 7.18496C59.723 7.04346 59.7509 6.90334 59.805 6.77262C59.8592 6.64189 59.9385 6.5231 60.0386 6.42305C60.1387 6.32299 60.2574 6.24363 60.3882 6.18948C60.5189 6.13533 60.659 6.10746 60.8005 6.10746C60.942 6.10746 61.0821 6.13533 61.2129 6.18948C61.3436 6.24363 61.4624 6.32299 61.5624 6.42305C61.6625 6.5231 61.7418 6.64189 61.796 6.77262C61.8501 6.90334 61.878 7.04346 61.878 7.18496C61.878 7.78096 61.396 8.26296 60.801 8.26296Z" fill="black"/>
<path d="M55.994 14.9821C57.6525 14.9821 58.997 13.6376 58.997 11.9791C58.997 10.3206 57.6525 8.97607 55.994 8.97607C54.3355 8.97607 52.991 10.3206 52.991 11.9791C52.991 13.6376 54.3355 14.9821 55.994 14.9821Z" fill="black"/>
<path d="M107.633 7.99704C107.646 8.17204 107.646 8.34604 107.646 8.52004C107.646 13.845 103.593 19.981 96.186 19.981C93.904 19.981 91.784 19.32 90 18.172C90.324 18.209 90.636 18.222 90.973 18.222C92.786 18.2264 94.5476 17.6202 95.974 16.501C95.1334 16.4858 94.3186 16.2085 93.6432 15.7078C92.9679 15.2071 92.4658 14.5079 92.207 13.708C92.456 13.745 92.706 13.77 92.968 13.77C93.329 13.77 93.692 13.72 94.029 13.633C93.1168 13.4489 92.2965 12.9544 91.7076 12.2337C91.1188 11.5131 90.7977 10.6107 90.799 9.68004V9.63004C91.336 9.92904 91.959 10.116 92.619 10.141C92.0661 9.77363 91.6127 9.27507 91.2993 8.68983C90.986 8.1046 90.8223 7.4509 90.823 6.78704C90.823 6.03904 91.022 5.35304 91.371 4.75504C92.3831 6.00006 93.6455 7.0186 95.0763 7.7447C96.5072 8.4708 98.0746 8.88826 99.677 8.97004C99.615 8.67004 99.577 8.35904 99.577 8.04704C99.5767 7.518 99.6807 6.9941 99.8831 6.50528C100.085 6.01647 100.382 5.57232 100.756 5.19823C101.13 4.82414 101.574 4.52745 102.063 4.32512C102.552 4.12279 103.076 4.01878 103.605 4.01904C104.765 4.01904 105.812 4.50504 106.548 5.29104C107.45 5.11666 108.315 4.78747 109.104 4.31804C108.803 5.24886 108.174 6.03815 107.333 6.53804C108.133 6.44682 108.914 6.2365 109.652 5.91404C109.101 6.71714 108.419 7.42139 107.633 7.99704Z" fill="black"/>
</svg>
