<svg width="60" height="60" viewBox="0 0 60 60" fill="none" xmlns="http://www.w3.org/2000/svg">
<path fill-rule="evenodd" clip-rule="evenodd" d="M17.6731 30.2743C17.6731 30.5026 17.7638 30.7216 17.9253 30.8831C18.0867 31.0445 18.3057 31.1352 18.534 31.1352L38.8391 31.1352L33.4207 36.552C33.259 36.7136 33.1682 36.9329 33.1682 37.1615C33.1682 37.3901 33.259 37.6093 33.4207 37.771C33.5823 37.9327 33.8016 38.0235 34.0302 38.0235C34.2588 38.0235 34.478 37.9327 34.6397 37.771L41.5269 30.8838C41.607 30.8039 41.6706 30.7088 41.714 30.6043C41.7574 30.4997 41.7798 30.3875 41.7798 30.2743C41.7798 30.1611 41.7574 30.0489 41.714 29.9444C41.6706 29.8398 41.607 29.7448 41.5269 29.6648L34.6397 22.7776C34.5596 22.6976 34.4646 22.6341 34.36 22.5908C34.2555 22.5474 34.1434 22.5251 34.0302 22.5251C33.8016 22.5251 33.5823 22.616 33.4207 22.7776C33.259 22.9393 33.1682 23.1585 33.1682 23.3871C33.1682 23.6157 33.259 23.835 33.4207 23.9966L38.8391 29.4134L18.534 29.4134C18.3057 29.4134 18.0867 29.5041 17.9253 29.6656C17.7638 29.827 17.6731 30.046 17.6731 30.2743Z" fill="white"/>
<circle r="29" transform="matrix(-1 0 0 1 30 30)" stroke="white" stroke-width="2"/>
</svg>
