<svg width="28" height="28" viewBox="0 0 28 28" fill="none" xmlns="http://www.w3.org/2000/svg">
<path fill-rule="evenodd" clip-rule="evenodd" d="M1.74966 13.9999C1.74966 14.232 1.84185 14.4546 2.00594 14.6187C2.17004 14.7827 2.3926 14.8749 2.62466 14.8749L23.2623 14.8749L17.7551 20.3804C17.5908 20.5447 17.4985 20.7675 17.4985 20.9999C17.4985 21.2323 17.5908 21.4551 17.7551 21.6194C17.9194 21.7837 18.1422 21.876 18.3746 21.876C18.6069 21.876 18.8298 21.7837 18.9941 21.6194L25.9941 14.6194C26.0755 14.5382 26.1402 14.4416 26.1843 14.3353C26.2284 14.229 26.2511 14.115 26.2511 13.9999C26.2511 13.8848 26.2284 13.7709 26.1843 13.6646C26.1402 13.5583 26.0755 13.4617 25.9941 13.3804L18.9941 6.38047C18.9127 6.29912 18.8162 6.23459 18.7099 6.19056C18.6036 6.14653 18.4896 6.12387 18.3746 6.12387C18.1422 6.12387 17.9194 6.21617 17.7551 6.38047C17.5908 6.54477 17.4985 6.76761 17.4985 6.99997C17.4985 7.23233 17.5908 7.45517 17.7551 7.61947L23.2623 13.1249L2.62466 13.1249C2.3926 13.1249 2.17004 13.2171 2.00594 13.3812C1.84185 13.5453 1.74966 13.7679 1.74966 13.9999Z" fill="#F9250F"/>
</svg>
